<?xml version="1.0" standalone="no"?>
<!DOCTYPE svg PUBLIC "-//W3C//DTD SVG 20010904//EN"
 "http://www.w3.org/TR/2001/REC-SVG-20010904/DTD/svg10.dtd">
<svg version="1.0" xmlns="http://www.w3.org/2000/svg"
 width="124.000000pt" height="124.000000pt" viewBox="0 0 124.000000 124.000000"
 preserveAspectRatio="xMidYMid meet">
<metadata>
Created by potrace 1.14, written by Peter Selinger 2001-2017
</metadata>
<g transform="translate(0.000000,124.000000) scale(0.100000,-0.100000)"
fill="#000000" stroke="none">
<path d="M268 1082 l-238 -137 0 -280 0 -280 98 -56 c53 -30 161 -92 238 -138
l142 -82 137 77 136 77 84 -58 84 -58 100 59 c56 33 101 62 101 65 0 3 -36 30
-80 60 l-80 54 0 271 0 271 80 54 c43 30 79 56 80 59 0 8 -186 120 -199 120
-6 0 -44 -23 -85 -51 l-73 -51 -141 81 c-78 45 -142 81 -144 81 -2 0 -110 -62
-240 -138z m359 -170 c65 -37 117 -72 117 -77 -1 -5 -54 -39 -119 -76 l-117
-67 -121 70 c-67 38 -123 71 -125 73 -2 1 229 138 245 144 0 1 54 -30 120 -67z
m-235 -182 l118 -65 0 -133 c0 -73 -3 -131 -7 -129 -5 2 -63 36 -130 76 l-123
72 0 125 c0 95 3 125 13 122 6 -2 65 -32 129 -68z"/>
</g>
</svg>
