<?xml version="1.0" standalone="no"?>
<!DOCTYPE svg PUBLIC "-//W3C//DTD SVG 20010904//EN"
 "http://www.w3.org/TR/2001/REC-SVG-20010904/DTD/svg10.dtd">
<svg version="1.0" xmlns="http://www.w3.org/2000/svg"
 width="124.000000pt" height="124.000000pt" viewBox="0 0 124.000000 124.000000"
 preserveAspectRatio="xMidYMid meet">
<metadata>
Created by potrace 1.14, written by Peter Selinger 2001-2017
</metadata>
<g transform="translate(0.000000,124.000000) scale(0.100000,-0.100000)"
fill="#000000" stroke="none">
<path d="M300 1100 c-113 -66 -220 -127 -238 -136 l-32 -16 0 -284 c0 -262 1
-285 17 -291 10 -4 68 -36 128 -71 61 -36 160 -94 222 -129 l112 -63 136 76
136 77 84 -58 83 -58 44 25 c100 57 158 93 158 99 0 3 -36 30 -80 60 l-80 54
0 271 0 270 78 54 c42 29 79 55 81 57 5 4 -25 27 -59 45 -14 7 -27 15 -30 18
-10 12 -99 60 -109 60 -6 0 -44 -23 -85 -51 l-73 -51 -140 81 c-77 44 -142 81
-144 81 -2 0 -96 -54 -209 -120z m358 -207 c52 -31 90 -59 85 -63 -4 -5 -59
-38 -121 -73 l-114 -65 -124 71 -124 71 63 37 c34 21 85 49 112 64 28 15 54
31 59 36 10 9 34 -2 164 -78z m-313 -139 c44 -24 99 -54 123 -66 32 -17 42
-28 43 -47 4 -104 3 -224 -1 -232 -3 -4 -63 26 -132 67 l-126 75 -1 124 c0 69
3 125 7 125 4 0 43 -21 87 -46z"/>
</g>
</svg>
