<?xml version="1.0" encoding="UTF-8"?>
<svg xmlns="http://www.w3.org/2000/svg">
    <symbol id="phone" viewBox="0 0 56 56">
        <path
            d="M 27.9999 51.9062 C 41.0546 51.9062 51.9063 41.0547 51.9063 28.0000 C 51.9063 14.9219 41.0312 4.0938 27.9765 4.0938 C 14.8983 4.0938 4.0937 14.9219 4.0937 28.0000 C 4.0937 41.0547 14.9218 51.9062 27.9999 51.9062 Z M 21.8827 33.8360 C 16.0702 28.0469 12.3671 20.6640 16.7499 16.2813 C 17.0077 16.0234 17.2890 15.7656 17.5468 15.5078 C 18.8827 14.2422 20.1718 14.3125 21.3202 15.9297 L 24.3671 20.2656 C 25.3983 21.7656 25.1405 22.6094 24.0390 23.7813 L 23.0780 24.8360 C 22.7265 25.1640 22.8671 25.6094 23.0312 25.8906 C 23.4765 26.7344 24.7421 28.2344 26.1014 29.5938 C 27.5077 31.0000 28.9374 32.1953 29.8280 32.6875 C 30.1562 32.875 30.6249 32.9219 30.9296 32.6406 L 31.9374 31.6797 C 33.0624 30.5781 33.9765 30.2969 35.4296 31.3281 C 37.4452 32.7578 38.6640 33.6016 39.8593 34.4219 C 41.3358 35.5000 41.6874 36.8360 40.1874 38.1953 C 39.9296 38.4531 39.6952 38.7344 39.4374 38.9922 C 35.0546 43.3516 27.6952 39.6484 21.8827 33.8360 Z" />
    </symbol>

    <symbol id="email" viewBox="0 0 56 56">
        <path
            d="M 27.9999 51.9062 C 41.0546 51.9062 51.9063 41.0547 51.9063 28.0000 C 51.9063 14.9219 41.0312 4.0938 27.9765 4.0938 C 14.8983 4.0938 4.0937 14.9219 4.0937 28.0000 C 4.0937 41.0547 14.9218 51.9062 27.9999 51.9062 Z M 27.9765 29.2422 C 27.5780 29.2422 27.1327 29.1016 26.6640 28.6328 L 16.3280 18.2969 C 16.6093 18.0625 17.3124 17.8281 18.2968 17.8281 L 37.6327 17.8281 C 38.6405 17.8281 39.3202 18.0625 39.6014 18.2969 L 29.2655 28.6328 C 28.8202 29.0781 28.3749 29.2422 27.9765 29.2422 Z M 23.3358 28.0000 L 15.2030 36.1328 C 15.0390 35.8516 14.9687 35.2656 14.9687 34.4453 L 14.9687 21.4609 C 14.9687 20.6406 15.0390 20.0781 15.1796 19.8438 Z M 32.5234 28.0000 L 40.7030 19.8438 C 40.8202 20.0781 40.8905 20.6406 40.8905 21.4609 L 40.8905 34.4453 C 40.8905 35.2656 40.8202 35.8516 40.6562 36.1328 Z M 27.9530 31.0938 C 28.7968 31.0938 29.4530 30.7891 30.3671 29.9453 L 31.1171 29.2422 L 39.5312 37.6562 C 39.2499 37.9140 38.5936 38.0781 37.6093 38.0781 L 18.2968 38.0781 C 17.3124 38.0781 16.6562 37.9140 16.3749 37.6562 L 24.7890 29.2422 L 25.5390 29.9453 C 26.4530 30.7891 27.1093 31.0938 27.9530 31.0938 Z" />
    </symbol>

    <symbol id="plus" viewBox="0 0 17 17">
        <path fill="#C20D19" d="M0 7h17v3H0z" />
        <path fill="#C20D19" d="M10 0v17H7V0z" />
    </symbol>


    <!-- UNUSED -->

    <symbol id="telegram" viewBox="0 0 512 512" fill="currentColor">
        <path
            d="M477,43.86,13.32,223.29a5.86,5.86,0,0,0-.8.38c-3.76,2.13-30,18.18,7,32.57l.38.14,110.41,35.67a6.08,6.08,0,0,0,5.09-.62L409.25,120.57a6,6,0,0,1,2.2-.83c3.81-.63,14.78-1.81,7.84,7-7.85,10-194.9,177.62-215.66,196.21a6.3,6.3,0,0,0-2.07,4.17l-9.06,108a7.08,7.08,0,0,0,2.83,5.67,6.88,6.88,0,0,0,8.17-.62l65.6-58.63a6.09,6.09,0,0,1,7.63-.39l114.45,83.1.37.25c2.77,1.71,32.69,19.12,41.33-19.76l79-375.65c.11-1.19,1.18-14.27-8.17-22-9.82-8.08-23.72-4-25.81-3.56A6,6,0,0,0,477,43.86Z" />
    </symbol>

    <symbol id="arrow-up-right" viewBox="0 0 20 20" fill="currentColor">
        <path fill-rule="evenodd"
            d="M5.22 14.78a.75.75 0 001.06 0l7.22-7.22v5.69a.75.75 0 001.5 0v-7.5a.75.75 0 00-.75-.75h-7.5a.75.75 0 000 1.5h5.69l-7.22 7.22a.75.75 0 000 1.06z"
            clip-rule="evenodd"></path>
    </symbol>

    <symbol id="arrow-right" viewBox="0 0 20 20" fill="currentColor">
        <path fill-rule="evenodd"
            d="M3 10a.75.75 0 01.75-.75h10.638L10.23 5.29a.75.75 0 111.04-1.08l5.5 5.25a.75.75 0 010 1.08l-5.5 5.25a.75.75 0 11-1.04-1.08l4.158-3.96H3.75A.75.75 0 013 10z"
            clip-rule="evenodd"></path>
    </symbol>


    <symbol id="arrow-next" viewBox="0 0 8 12">
        <path fill="transparent" stroke="currentColor" stroke-width="2" d="M1 11l5-4.872L1 1" />
    </symbol>

    <symbol id="arrow-prev" viewBox="0 0 7 11">
        <path fill="transparent" stroke="currentColor" stroke-width="1.5" d="M6 10L2 5.615 6 1" />
    </symbol>

    <symbol id="arrow-up" viewBox="0 0 24 12">
        <path fill="transparent" stroke="#222" stroke-width="3" d="M23 10L12.282 2 1 10" />
    </symbol>

    <symbol id="arrow" viewBox="0 0 9 5">
        <path fill="transparent" stroke="currentColor" stroke-linecap="round"
            stroke-linejoin="round"
            stroke-width="1.75" d="M1 1l3.41 3L8 1" />
    </symbol>

    <symbol id="arrow-down" viewBox="0 0 20 13">
        <path fill="transparent" d="M2 2l7.795 8L18 2" />
    </symbol>


</svg>