<?xml version="1.0" encoding="UTF-8"?>
<svg xmlns="http://www.w3.org/2000/svg">
    <symbol id="phone" viewBox="0 0 56 56">
        <path
            d="M 27.9999 51.9062 C 41.0546 51.9062 51.9063 41.0547 51.9063 28.0000 C 51.9063 14.9219 41.0312 4.0938 27.9765 4.0938 C 14.8983 4.0938 4.0937 14.9219 4.0937 28.0000 C 4.0937 41.0547 14.9218 51.9062 27.9999 51.9062 Z M 21.8827 33.8360 C 16.0702 28.0469 12.3671 20.6640 16.7499 16.2813 C 17.0077 16.0234 17.2890 15.7656 17.5468 15.5078 C 18.8827 14.2422 20.1718 14.3125 21.3202 15.9297 L 24.3671 20.2656 C 25.3983 21.7656 25.1405 22.6094 24.0390 23.7813 L 23.0780 24.8360 C 22.7265 25.1640 22.8671 25.6094 23.0312 25.8906 C 23.4765 26.7344 24.7421 28.2344 26.1014 29.5938 C 27.5077 31.0000 28.9374 32.1953 29.8280 32.6875 C 30.1562 32.875 30.6249 32.9219 30.9296 32.6406 L 31.9374 31.6797 C 33.0624 30.5781 33.9765 30.2969 35.4296 31.3281 C 37.4452 32.7578 38.6640 33.6016 39.8593 34.4219 C 41.3358 35.5000 41.6874 36.8360 40.1874 38.1953 C 39.9296 38.4531 39.6952 38.7344 39.4374 38.9922 C 35.0546 43.3516 27.6952 39.6484 21.8827 33.8360 Z" />
    </symbol>
    <symbol id="email" viewBox="0 0 56 56">
        <path
            d="M 27.9999 51.9062 C 41.0546 51.9062 51.9063 41.0547 51.9063 28.0000 C 51.9063 14.9219 41.0312 4.0938 27.9765 4.0938 C 14.8983 4.0938 4.0937 14.9219 4.0937 28.0000 C 4.0937 41.0547 14.9218 51.9062 27.9999 51.9062 Z M 27.9765 29.2422 C 27.5780 29.2422 27.1327 29.1016 26.6640 28.6328 L 16.3280 18.2969 C 16.6093 18.0625 17.3124 17.8281 18.2968 17.8281 L 37.6327 17.8281 C 38.6405 17.8281 39.3202 18.0625 39.6014 18.2969 L 29.2655 28.6328 C 28.8202 29.0781 28.3749 29.2422 27.9765 29.2422 Z M 23.3358 28.0000 L 15.2030 36.1328 C 15.0390 35.8516 14.9687 35.2656 14.9687 34.4453 L 14.9687 21.4609 C 14.9687 20.6406 15.0390 20.0781 15.1796 19.8438 Z M 32.5234 28.0000 L 40.7030 19.8438 C 40.8202 20.0781 40.8905 20.6406 40.8905 21.4609 L 40.8905 34.4453 C 40.8905 35.2656 40.8202 35.8516 40.6562 36.1328 Z M 27.9530 31.0938 C 28.7968 31.0938 29.4530 30.7891 30.3671 29.9453 L 31.1171 29.2422 L 39.5312 37.6562 C 39.2499 37.9140 38.5936 38.0781 37.6093 38.0781 L 18.2968 38.0781 C 17.3124 38.0781 16.6562 37.9140 16.3749 37.6562 L 24.7890 29.2422 L 25.5390 29.9453 C 26.4530 30.7891 27.1093 31.0938 27.9530 31.0938 Z" />
    </symbol>
    <symbol id="arrow-down" viewBox="0 0 20 13">
        <path fill="transparent" d="M2 2l7.795 8L18 2" />
    </symbol>
    <symbol id="plus" viewBox="0 0 17 17">
        <path fill="#C20D19" d="M0 7h17v3H0z" />
        <path fill="#C20D19" d="M10 0v17H7V0z" />
    </symbol>
    <symbol id="telegram" viewBox="0 0 240.1 240.1">
        <circle fill-rule="evenodd" clip-rule="evenodd" cx="120.1" cy="120.1" r="120.1" />
        <path fill-rule="evenodd" clip-rule="evenodd" fill="#fff"
            d="M54.3,118.8c35-15.2,58.3-25.3,70-30.2 c33.3-13.9,40.3-16.3,44.8-16.4c1,0,3.2,0.2,4.7,1.4c1.2,1,1.5,2.3,1.7,3.3s0.4,3.1,0.2,4.7c-1.8,19-9.6,65.1-13.6,86.3 c-1.7,9-5,12-8.2,12.3c-7,0.6-12.3-4.6-19-9c-10.6-6.9-16.5-11.2-26.8-18c-11.9-7.8-4.2-12.1,2.6-19.1c1.8-1.8,32.5-29.8,33.1-32.3 c0.1-0.3,0.1-1.5-0.6-2.1c-0.7-0.6-1.7-0.4-2.5-0.2c-1.1,0.2-17.9,11.4-50.6,33.5c-4.8,3.3-9.1,4.9-13,4.8 c-4.3-0.1-12.5-2.4-18.7-4.4c-7.5-2.4-13.5-3.7-13-7.9C45.7,123.3,48.7,121.1,54.3,118.8z" />
    </symbol>
    <symbol id="whatsapp" viewBox="0 0 308 308">
        <g>
            <path d="M227.904,176.981c-0.6-0.288-23.054-11.345-27.044-12.781c-1.629-0.585-3.374-1.156-5.23-1.156
		c-3.032,0-5.579,1.511-7.563,4.479c-2.243,3.334-9.033,11.271-11.131,13.642c-0.274,0.313-0.648,0.687-0.872,0.687
		c-0.201,0-3.676-1.431-4.728-1.888c-24.087-10.463-42.37-35.624-44.877-39.867c-0.358-0.61-0.373-0.887-0.376-0.887
		c0.088-0.323,0.898-1.135,1.316-1.554c1.223-1.21,2.548-2.805,3.83-4.348c0.607-0.731,1.215-1.463,1.812-2.153
		c1.86-2.164,2.688-3.844,3.648-5.79l0.503-1.011c2.344-4.657,0.342-8.587-0.305-9.856c-0.531-1.062-10.012-23.944-11.02-26.348
		c-2.424-5.801-5.627-8.502-10.078-8.502c-0.413,0,0,0-1.732,0.073c-2.109,0.089-13.594,1.601-18.672,4.802
		c-5.385,3.395-14.495,14.217-14.495,33.249c0,17.129,10.87,33.302,15.537,39.453c0.116,0.155,0.329,0.47,0.638,0.922
		c17.873,26.102,40.154,45.446,62.741,54.469c21.745,8.686,32.042,9.69,37.896,9.69c0.001,0,0.001,0,0.001,0
		c2.46,0,4.429-0.193,6.166-0.364l1.102-0.105c7.512-0.666,24.02-9.22,27.775-19.655c2.958-8.219,3.738-17.199,1.77-20.458
		C233.168,179.508,230.845,178.393,227.904,176.981z" />
            <path d="M156.734,0C73.318,0,5.454,67.354,5.454,150.143c0,26.777,7.166,52.988,20.741,75.928L0.212,302.716
		c-0.484,1.429-0.124,3.009,0.933,4.085C1.908,307.58,2.943,308,4,308c0.405,0,0.813-0.061,1.211-0.188l79.92-25.396
		c21.87,11.685,46.588,17.853,71.604,17.853C240.143,300.27,308,232.923,308,150.143C308,67.354,240.143,0,156.734,0z
		 M156.734,268.994c-23.539,0-46.338-6.797-65.936-19.657c-0.659-0.433-1.424-0.655-2.194-0.655c-0.407,0-0.815,0.062-1.212,0.188
		l-40.035,12.726l12.924-38.129c0.418-1.234,0.209-2.595-0.561-3.647c-14.924-20.392-22.813-44.485-22.813-69.677
		c0-65.543,53.754-118.867,119.826-118.867c66.064,0,119.812,53.324,119.812,118.867
		C276.546,215.678,222.799,268.994,156.734,268.994z" />
        </g>
    </symbol>
</svg>